# FreeCAD v0.20 build25220 (Git) Arch module
# http://www.freecadweb.org
mtllib Mesh001001.mtl
o Mesh001001
usemtl color_cccccc
v 3000.0 22.0 1999.999756
v 2549.998047 -0.0 1999.999756
v 3000.0 -0.0 1999.999756
v 2549.998047 22.0 1999.999756
v 2549.998047 -0.0 1599.992554
v 2549.998047 22.0 1599.992554
v 450.005981 22.0 1999.999756
v 6.3e-05 -0.0 1999.999756
v 450.005981 -0.0 1999.999756
v 6.3e-05 22.0 1999.999756
v 450.005981 -0.0 1599.992554
v 450.005981 22.0 1599.992554
v 3000.0 0.0 1e-06
v 3000.0 22.0 1e-06
v 6.3e-05 22.0 1e-06
v 6.3e-05 0.0 1e-06
vn 0.0 0.0 1.0
vn 0.0 0.0 1.0
vn -1.0 0.0 0.0
vn -1.0 0.0 0.0
vn 0.0 0.0 1.0
vn 0.0 0.0 1.0
vn 1.0 0.0 0.0
vn 1.0 -0.0 0.0
vn 0.0 0.0 1.0
vn -0.0 0.0 1.0
vn 1.0 0.0 0.0
vn 1.0 -0.0 0.0
vn 0.0 0.0 -1.0
vn 0.0 0.0 -1.0
vn -1.0 0.0 0.0
vn -1.0 0.0 0.0
vn 0.0 -1.0 -4.4249207628845543e-16
vn -1.340515148825753e-18 -1.0 -4.440000596323641e-16
vn -0.0 -1.0 -4.4249210275823503e-16
vn 0.0 -1.0 -4.443770422334515e-16
vn -0.0 -1.0 -4.443770951730107e-16
vn 1.3405269361494818e-18 -1.0 -4.440000596323641e-16
vn 0.0 1.0 0.0
vn 0.0 1.0 0.0
vn 0.0 1.0 0.0
vn 0.0 1.0 0.0
vn 0.0 1.0 0.0
vn 0.0 1.0 0.0
f 1//1 2//1 3//1 
f 1//2 4//2 2//2 
f 5//3 2//3 4//3 
f 5//4 4//4 6//4 
f 7//5 8//5 9//5 
f 7//6 10//6 8//6 
f 7//7 11//7 12//7 
f 9//8 11//8 7//8 
f 12//9 11//9 5//9 
f 12//10 5//10 6//10 
f 3//11 13//11 14//11 
f 3//12 14//12 1//12 
f 15//13 13//13 16//13 
f 15//14 14//14 13//14 
f 16//15 8//15 10//15 
f 16//16 10//16 15//16 
f 11//17 9//17 8//17 
f 16//18 11//18 8//18 
f 3//19 2//19 5//19 
f 13//20 5//20 11//20 
f 13//21 11//21 16//21 
f 13//22 3//22 5//22 
f 12//23 15//23 10//23 
f 7//24 12//24 10//24 
f 14//25 15//25 12//25 
f 6//26 14//26 12//26 
f 1//27 6//27 4//27 
f 1//28 14//28 6//28 
