# Created by FreeCAD <http://www.freecadweb.org>
v 1228.000000 166.907913 1978.000000
v 476.410950 22.000000 2000.000000
v 1228.000000 166.907913 2000.000000
v 476.410950 22.000000 1978.000000
v 1228.000000 22.000000 2000.000000
v 1228.000000 22.000000 1978.000000
v 1228.000000 166.907913 1789.000000
v 476.410950 22.000000 1789.000000
v 476.410950 22.000000 1811.000000
v 1228.000000 166.907913 1811.000000
v 1228.000000 22.000000 1811.000000
v 1228.000000 22.000000 1789.000000
v 1228.000000 166.907913 1600.000000
v 476.410950 22.000000 1600.000000
v 476.410950 22.000000 1622.000000
v 1228.000000 166.907913 1622.000000
v 1228.000000 22.000000 1622.000000
v 1228.000000 22.000000 1600.000000
v 476.410950 22.000000 1600.000000
v 1228.000000 166.907913 1600.000000
v 1228.000000 166.907913 2000.000000
v 476.410950 22.000000 2000.000000
v 1228.000000 172.000000 1600.000000
v 1228.000000 172.000000 2000.000000
v 450.000000 22.000000 1600.000000
v 450.000000 22.000000 2000.000000
v 1228.000000 260.000000 1622.000000
v 1228.000000 172.000000 1622.000000
v 1250.000000 172.000000 1622.000000
v 1250.000000 260.000000 1622.000000
v 1228.000000 172.000000 1978.000000
v 1250.000000 172.000000 1978.000000
v 1228.000000 282.000000 1600.000000
v 1228.000000 22.000000 1600.000000
v 1228.000000 22.000000 2000.000000
v 1228.000000 282.000000 2000.000000
v 1228.000000 260.000000 1978.000000
v 1250.000000 260.000000 1978.000000
v 1250.000000 282.000000 2000.000000
v 1250.000000 22.000000 2000.000000
v 1250.000000 22.000000 1600.000000
v 1250.000000 282.000000 1600.000000
v 1500.000000 242.000000 2005.000000
v 1500.000000 92.000000 2005.000000
v 1500.000000 92.000000 2000.000000
v 1500.000000 242.000000 2000.000000
v 450.000000 92.000000 2005.000000
v 450.000000 92.000000 2000.000000
v 1221.313477 242.000000 2005.000000
v 450.000000 93.289169 2005.000000
v 1221.313477 242.000000 2000.000000
v 450.000000 93.289169 2000.000000
v 1250.000000 22.000000 1600.000000
v 1250.000000 246.241638 1578.000000
v 1250.000000 246.241638 1600.000000
v 1250.000000 22.000000 1578.000000
v 450.000000 92.000000 1578.000000
v 450.000000 92.000000 1600.000000
v 450.000000 22.000000 1578.000000
v 450.000000 22.000000 1600.000000
v 1475.000000 22.000000 1600.000000
v 1250.000000 72.000000 1600.000000
v 1250.000000 22.000000 1600.000000
v 1475.000000 72.000000 1600.000000
v 1250.000000 72.000000 1578.000000
v 1250.000000 22.000000 1578.000000
v 1475.000000 72.000000 1578.000000
v 1475.000000 22.000000 1578.000000
v 1475.000000 22.000000 2000.000000
v 1250.000000 72.000000 2000.000000
v 1250.000000 22.000000 2000.000000
v 1475.000000 72.000000 2000.000000
v 1250.000000 72.000000 1978.000000
v 1250.000000 22.000000 1978.000000
v 1475.000000 72.000000 1978.000000
v 1475.000000 22.000000 1978.000000
v 2523.589111 22.000000 2000.000000
v 1772.000000 166.907913 1978.000000
v 1772.000000 166.907913 2000.000000
v 2523.589111 22.000000 1978.000000
v 1772.000000 22.000000 2000.000000
v 1772.000000 22.000000 1978.000000
v 2523.589111 22.000000 1789.000000
v 1772.000000 166.907913 1789.000000
v 1772.000000 166.907913 1811.000000
v 2523.589111 22.000000 1811.000000
v 1772.000000 22.000000 1789.000000
v 1772.000000 22.000000 1811.000000
v 2523.589111 22.000000 1600.000000
v 1772.000000 166.907913 1600.000000
v 1772.000000 166.907913 1622.000000
v 2523.589111 22.000000 1622.000000
v 1772.000000 22.000000 1600.000000
v 1772.000000 22.000000 1622.000000
v 1772.000000 172.000000 1622.000000
v 1772.000000 260.000000 1622.000000
v 1750.000000 260.000000 1622.000000
v 1750.000000 172.000000 1622.000000
v 1772.000000 260.000000 1978.000000
v 1750.000000 260.000000 1978.000000
v 1772.000000 282.000000 2000.000000
v 1772.000000 22.000000 2000.000000
v 1772.000000 172.000000 1978.000000
v 1772.000000 22.000000 1600.000000
v 1772.000000 282.000000 1600.000000
v 1750.000000 172.000000 1978.000000
v 1750.000000 282.000000 1600.000000
v 1750.000000 22.000000 1600.000000
v 1750.000000 22.000000 2000.000000
v 1750.000000 282.000000 2000.000000
v 1500.000000 92.000000 2005.000000
v 1500.000000 242.000000 2005.000000
v 1500.000000 242.000000 2000.000000
v 1500.000000 92.000000 2000.000000
v 1778.686523 242.000000 2005.000000
v 1778.686523 242.000000 2000.000000
v 2550.000000 92.000000 2005.000000
v 2550.000000 93.289169 2005.000000
v 2550.000000 92.000000 2000.000000
v 2550.000000 93.289169 2000.000000
v 1772.000000 166.907913 1600.000000
v 2523.589111 22.000000 1600.000000
v 2523.589111 22.000000 2000.000000
v 1772.000000 166.907913 2000.000000
v 2550.000000 22.000000 1600.000000
v 2550.000000 22.000000 2000.000000
v 1772.000000 172.000000 1600.000000
v 1772.000000 172.000000 2000.000000
v 1750.000000 72.000000 1600.000000
v 1525.000000 72.000000 1600.000000
v 1525.000000 22.000000 1600.000000
v 1750.000000 22.000000 1600.000000
v 1525.000000 72.000000 1578.000000
v 1525.000000 22.000000 1578.000000
v 1750.000000 72.000000 1578.000000
v 1750.000000 22.000000 1578.000000
v 1750.000000 72.000000 2000.000000
v 1525.000000 72.000000 2000.000000
v 1525.000000 22.000000 2000.000000
v 1750.000000 22.000000 2000.000000
v 1525.000000 72.000000 1978.000000
v 1525.000000 22.000000 1978.000000
v 1750.000000 72.000000 1978.000000
v 1750.000000 22.000000 1978.000000
v 1750.000000 246.241638 1600.000000
v 1750.000000 22.000000 1578.000000
v 1750.000000 22.000000 1600.000000
v 1750.000000 246.241638 1578.000000
v 2550.000000 22.000000 1578.000000
v 2550.000000 22.000000 1600.000000
v 2550.000000 92.000000 1578.000000
v 2550.000000 92.000000 1600.000000
vn -0.189315 0.981916 0.000000
vn -0.189315 0.981916 0.000000
vn 1.000000 0.000000 0.000000
vn 1.000000 0.000000 -0.000000
vn 0.000000 0.000000 1.000000
vn -0.000000 -1.000000 0.000000
vn 0.000000 -1.000000 -0.000000
vn 0.000000 0.000000 -1.000000
vn -0.189315 0.981916 0.000000
vn -0.189315 0.981916 0.000000
vn -0.000000 -1.000000 0.000000
vn 0.000000 -1.000000 -0.000000
vn 0.000000 0.000000 -1.000000
vn 1.000000 0.000000 0.000000
vn 1.000000 0.000000 -0.000000
vn 0.000000 0.000000 1.000000
vn -0.189315 0.981916 0.000000
vn -0.189315 0.981916 0.000000
vn -0.000000 -1.000000 0.000000
vn 0.000000 -1.000000 -0.000000
vn 0.000000 0.000000 -1.000000
vn 1.000000 0.000000 0.000000
vn 1.000000 0.000000 -0.000000
vn 0.000000 0.000000 1.000000
vn 0.189315 -0.981916 0.000000
vn 0.189315 -0.981916 0.000000
vn 1.000000 0.000000 0.000000
vn 1.000000 0.000000 0.000000
vn 0.000000 0.000000 -1.000000
vn 0.000000 0.000000 -1.000000
vn 0.000000 -1.000000 0.000000
vn 0.000000 -1.000000 0.000000
vn 0.000000 0.000000 1.000000
vn 0.000000 0.000000 1.000000
vn -0.189315 0.981916 0.000000
vn -0.189315 0.981916 0.000000
vn 0.000000 0.000000 1.000000
vn -0.000000 0.000000 1.000000
vn 0.000000 1.000000 0.000000
vn 0.000000 1.000000 0.000000
vn -1.000000 0.000000 0.000000
vn -1.000000 -0.000000 -0.000000
vn -1.000000 -0.000000 0.000000
vn -1.000000 0.000000 -0.000000
vn -1.000000 0.000000 0.000000
vn -1.000000 -0.000000 0.000000
vn -1.000000 0.000000 -0.000000
vn -1.000000 0.000000 0.000000
vn 0.000000 -1.000000 0.000000
vn 0.000000 -1.000000 0.000000
vn 1.000000 0.000000 0.000000
vn 1.000000 0.000000 -0.000000
vn 1.000000 0.000000 0.000000
vn 1.000000 0.000000 -0.000000
vn 1.000000 0.000000 0.000000
vn 1.000000 0.000000 0.000000
vn 1.000000 0.000000 -0.000000
vn 1.000000 0.000000 0.000000
vn 0.000000 0.000000 -1.000000
vn 0.000000 0.000000 -1.000000
vn 0.000000 0.000000 -1.000000
vn 0.000000 0.000000 -1.000000
vn 0.000000 1.000000 0.000000
vn 0.000000 1.000000 0.000000
vn 0.000000 0.000000 1.000000
vn 0.000000 0.000000 1.000000
vn -0.000000 -1.000000 0.000000
vn 0.000000 -1.000000 -0.000000
vn 1.000000 0.000000 0.000000
vn 1.000000 0.000000 0.000000
vn -0.000000 -1.000000 0.000000
vn 0.000000 -1.000000 -0.000000
vn 0.000000 0.000000 1.000000
vn 0.000000 0.000000 1.000000
vn 0.000000 0.000000 1.000000
vn -0.000000 1.000000 0.000000
vn 0.000000 1.000000 0.000000
vn 0.000000 0.000000 -1.000000
vn 0.000000 0.000000 -1.000000
vn 0.000000 0.000000 -1.000000
vn -1.000000 0.000000 -0.000000
vn -1.000000 0.000000 0.000000
vn -0.189315 0.981916 0.000000
vn -0.189315 0.981916 0.000000
vn 1.000000 -0.000000 0.000000
vn 1.000000 0.000000 0.000000
vn -0.189315 0.981916 0.000000
vn -0.189315 0.981916 0.000000
vn 0.000000 0.000000 -1.000000
vn 0.000000 0.000000 -1.000000
vn 0.000000 -1.000000 0.000000
vn 0.000000 -1.000000 0.000000
vn 0.000000 0.000000 1.000000
vn 0.000000 0.000000 1.000000
vn -1.000000 0.000000 0.000000
vn -1.000000 0.000000 0.000000
vn 0.000000 0.000000 1.000000
vn 0.000000 0.000000 1.000000
vn -1.000000 0.000000 -0.000000
vn -1.000000 -0.000000 0.000000
vn 0.000000 1.000000 0.000000
vn 0.000000 1.000000 0.000000
vn 1.000000 0.000000 -0.000000
vn 1.000000 0.000000 0.000000
vn 0.000000 -1.000000 0.000000
vn -0.000000 -1.000000 -0.000000
vn 0.000000 0.000000 -1.000000
vn 0.000000 0.000000 -1.000000
vn 0.000000 0.000000 1.000000
vn 0.000000 0.000000 1.000000
vn -1.000000 0.000000 -0.000000
vn -1.000000 -0.000000 0.000000
vn 0.000000 1.000000 0.000000
vn 0.000000 1.000000 0.000000
vn 1.000000 0.000000 -0.000000
vn 1.000000 0.000000 0.000000
vn 0.000000 -1.000000 0.000000
vn -0.000000 -1.000000 -0.000000
vn 0.000000 0.000000 -1.000000
vn 0.000000 0.000000 -1.000000
vn 0.189315 0.981916 0.000000
vn 0.189315 0.981916 -0.000000
vn 0.000000 -1.000000 0.000000
vn -0.000000 -1.000000 -0.000000
vn 0.000000 0.000000 1.000000
vn -1.000000 0.000000 0.000000
vn -1.000000 -0.000000 -0.000000
vn 0.000000 0.000000 -1.000000
vn 0.189315 0.981916 0.000000
vn 0.189315 0.981916 -0.000000
vn -1.000000 0.000000 0.000000
vn -1.000000 -0.000000 -0.000000
vn 0.000000 0.000000 -1.000000
vn -0.000000 -1.000000 0.000000
vn 0.000000 -1.000000 -0.000000
vn 0.000000 0.000000 1.000000
vn 0.189315 0.981916 0.000000
vn 0.189315 0.981916 -0.000000
vn -1.000000 0.000000 0.000000
vn -1.000000 -0.000000 -0.000000
vn 0.000000 0.000000 -1.000000
vn -0.000000 -1.000000 0.000000
vn 0.000000 -1.000000 -0.000000
vn 0.000000 0.000000 1.000000
vn 0.000000 -0.000000 1.000000
vn 0.000000 0.000000 1.000000
vn 0.000000 -1.000000 0.000000
vn 0.000000 -1.000000 0.000000
vn 1.000000 0.000000 0.000000
vn 1.000000 0.000000 -0.000000
vn 1.000000 0.000000 0.000000
vn 1.000000 0.000000 -0.000000
vn 1.000000 0.000000 0.000000
vn 1.000000 0.000000 0.000000
vn 1.000000 0.000000 -0.000000
vn 1.000000 0.000000 0.000000
vn 0.000000 1.000000 0.000000
vn 0.000000 1.000000 0.000000
vn -1.000000 0.000000 0.000000
vn -1.000000 -0.000000 -0.000000
vn -1.000000 0.000000 0.000000
vn -1.000000 -0.000000 -0.000000
vn -1.000000 0.000000 0.000000
vn -1.000000 -0.000000 0.000000
vn -1.000000 0.000000 -0.000000
vn -1.000000 0.000000 0.000000
vn 0.000000 -0.000000 -1.000000
vn -0.000000 0.000000 -1.000000
vn 0.000000 0.000000 1.000000
vn 0.000000 0.000000 1.000000
vn 0.000000 1.000000 0.000000
vn 0.000000 1.000000 0.000000
vn 0.000000 0.000000 -1.000000
vn 0.000000 0.000000 -1.000000
vn 0.000000 -1.000000 0.000000
vn -0.000000 -1.000000 -0.000000
vn -1.000000 0.000000 0.000000
vn -1.000000 0.000000 0.000000
vn -0.000000 1.000000 0.000000
vn 0.000000 1.000000 0.000000
vn 0.000000 0.000000 1.000000
vn 0.000000 0.000000 1.000000
vn 0.000000 0.000000 1.000000
vn -0.000000 -1.000000 0.000000
vn 0.000000 -1.000000 -0.000000
vn 0.000000 0.000000 -1.000000
vn 0.000000 0.000000 -1.000000
vn 0.000000 0.000000 -1.000000
vn 0.189315 0.981916 0.000000
vn 0.189315 0.981916 0.000000
vn 1.000000 0.000000 0.000000
vn 1.000000 0.000000 0.000000
vn -0.189315 -0.981916 0.000000
vn -0.189315 -0.981916 0.000000
vn 0.000000 -1.000000 0.000000
vn 0.000000 -1.000000 0.000000
vn 0.000000 0.000000 -1.000000
vn 0.000000 0.000000 -1.000000
vn -1.000000 0.000000 0.000000
vn -1.000000 0.000000 0.000000
vn 0.000000 0.000000 1.000000
vn 0.000000 0.000000 1.000000
vn 0.189315 0.981916 0.000000
vn 0.189315 0.981916 -0.000000
vn 0.000000 0.000000 1.000000
vn 0.000000 0.000000 1.000000
vn -1.000000 0.000000 -0.000000
vn -1.000000 -0.000000 0.000000
vn 0.000000 1.000000 0.000000
vn 0.000000 1.000000 0.000000
vn 1.000000 0.000000 -0.000000
vn 1.000000 0.000000 0.000000
vn -0.000000 -1.000000 0.000000
vn 0.000000 -1.000000 -0.000000
vn 0.000000 0.000000 -1.000000
vn 0.000000 0.000000 -1.000000
vn 0.000000 0.000000 1.000000
vn 0.000000 0.000000 1.000000
vn -1.000000 0.000000 -0.000000
vn -1.000000 -0.000000 0.000000
vn 0.000000 1.000000 0.000000
vn 0.000000 1.000000 0.000000
vn 1.000000 0.000000 -0.000000
vn 1.000000 0.000000 0.000000
vn -0.000000 -1.000000 0.000000
vn 0.000000 -1.000000 -0.000000
vn 0.000000 0.000000 -1.000000
vn 0.000000 0.000000 -1.000000
vn -1.000000 -0.000000 0.000000
vn -1.000000 0.000000 0.000000
vn 0.000000 -1.000000 0.000000
vn 0.000000 -1.000000 0.000000
vn 0.000000 0.000000 -1.000000
vn 0.000000 0.000000 -1.000000
vn 0.189315 0.981916 0.000000
vn 0.189315 0.981916 -0.000000
vn 0.000000 0.000000 1.000000
vn 0.000000 0.000000 1.000000
vn 1.000000 0.000000 0.000000
vn 1.000000 0.000000 0.000000
g R5_6
f 1//1 2//1 3//1
f 1//2 4//2 2//2
f 3//3 5//3 6//3
f 1//4 3//4 6//4
f 3//5 2//5 5//5
f 5//6 2//6 4//6
f 5//7 4//7 6//7
f 4//8 1//8 6//8
g R5_5
f 7//9 8//9 9//9
f 7//10 9//10 10//10
f 11//11 9//11 8//11
f 11//12 8//12 12//12
f 8//13 7//13 12//13
f 10//14 11//14 12//14
f 7//15 10//15 12//15
f 10//16 9//16 11//16
g R5_4
f 13//17 14//17 15//17
f 13//18 15//18 16//18
f 17//19 15//19 14//19
f 17//20 14//20 18//20
f 14//21 13//21 18//21
f 16//22 17//22 18//22
f 13//23 16//23 18//23
f 16//24 15//24 17//24
g R2_1
f 19//25 20//25 21//25
f 19//26 21//26 22//26
f 20//27 23//27 24//27
f 20//28 24//28 21//28
f 19//29 23//29 20//29
f 25//30 23//30 19//30
f 25//31 19//31 22//31
f 25//32 22//32 26//32
f 24//33 22//33 21//33
f 24//34 26//34 22//34
f 24//35 25//35 26//35
f 23//36 25//36 24//36
g R4_2
f 27//37 28//37 29//37
f 27//38 29//38 30//38
f 28//39 31//39 32//39
f 28//40 32//40 29//40
f 33//41 34//41 28//41
f 27//42 33//42 28//42
f 31//43 34//43 35//43
f 31//44 28//44 34//44
f 36//45 37//45 31//45
f 36//46 31//46 35//46
f 36//47 33//47 27//47
f 36//48 27//48 37//48
f 37//49 27//49 30//49
f 37//50 30//50 38//50
f 39//51 40//51 32//51
f 38//52 39//52 32//52
f 41//53 32//53 40//53
f 29//54 32//54 41//54
f 42//55 30//55 29//55
f 42//56 29//56 41//56
f 42//57 39//57 38//57
f 42//58 38//58 30//58
f 31//59 37//59 38//59
f 31//60 38//60 32//60
f 33//61 42//61 41//61
f 33//62 41//62 34//62
f 33//63 39//63 42//63
f 33//64 36//64 39//64
f 39//65 36//65 35//65
f 39//66 35//66 40//66
f 40//67 35//67 34//67
f 40//68 34//68 41//68
g R3_
f 43//69 44//69 45//69
f 43//70 45//70 46//70
f 44//71 47//71 48//71
f 44//72 48//72 45//72
f 49//73 50//73 47//73
f 44//74 49//74 47//74
f 43//75 49//75 44//75
f 49//76 43//76 46//76
f 49//77 46//77 51//77
f 51//78 46//78 45//78
f 48//79 51//79 45//79
f 52//80 51//80 48//80
f 50//81 52//81 48//81
f 47//82 50//82 48//82
f 50//83 49//83 51//83
f 50//84 51//84 52//84
g R1_2
f 53//85 54//85 55//85
f 56//86 54//86 53//86
f 54//87 57//87 58//87
f 54//88 58//88 55//88
f 57//89 54//89 56//89
f 57//90 56//90 59//90
f 60//91 56//91 53//91
f 59//92 56//92 60//92
f 53//93 58//93 60//93
f 55//94 58//94 53//94
f 57//95 59//95 60//95
f 57//96 60//96 58//96
g R6_3
f 61//97 62//97 63//97
f 64//98 62//98 61//98
f 62//99 65//99 66//99
f 62//100 66//100 63//100
f 65//101 62//101 64//101
f 65//102 64//102 67//102
f 67//103 64//103 61//103
f 67//104 61//104 68//104
f 68//105 63//105 66//105
f 61//106 63//106 68//106
f 65//107 67//107 68//107
f 65//108 68//108 66//108
f 69//109 70//109 71//109
f 72//110 70//110 69//110
f 70//111 73//111 74//111
f 70//112 74//112 71//112
f 73//113 70//113 72//113
f 73//114 72//114 75//114
f 75//115 72//115 69//115
f 75//116 69//116 76//116
f 76//117 71//117 74//117
f 69//118 71//118 76//118
f 73//119 75//119 76//119
f 73//120 76//120 74//120
g R5_2
f 77//121 78//121 79//121
f 80//122 78//122 77//122
f 80//123 81//123 82//123
f 77//124 81//124 80//124
f 77//125 79//125 81//125
f 78//126 82//126 81//126
f 79//127 78//127 81//127
f 78//128 80//128 82//128
g R5_1
f 83//129 84//129 85//129
f 83//130 85//130 86//130
f 84//131 87//131 88//131
f 85//132 84//132 88//132
f 84//133 83//133 87//133
f 86//134 88//134 87//134
f 86//135 87//135 83//135
f 86//136 85//136 88//136
g R5_3
f 89//137 90//137 91//137
f 89//138 91//138 92//138
f 90//139 93//139 94//139
f 91//140 90//140 94//140
f 90//141 89//141 93//141
f 92//142 94//142 93//142
f 92//143 93//143 89//143
f 92//144 91//144 94//144
g R4_1
f 95//145 96//145 97//145
f 95//146 97//146 98//146
f 96//147 99//147 100//147
f 96//148 100//148 97//148
f 101//149 102//149 103//149
f 99//150 101//150 103//150
f 104//151 103//151 102//151
f 95//152 103//152 104//152
f 105//153 96//153 95//153
f 105//154 95//154 104//154
f 105//155 101//155 99//155
f 105//156 99//156 96//156
f 103//157 95//157 98//157
f 103//158 98//158 106//158
f 107//159 108//159 98//159
f 97//160 107//160 98//160
f 109//161 98//161 108//161
f 106//162 98//162 109//162
f 110//163 100//163 106//163
f 110//164 106//164 109//164
f 110//165 107//165 97//165
f 110//166 97//166 100//166
f 99//167 103//167 106//167
f 99//168 106//168 100//168
f 101//169 110//169 109//169
f 101//170 109//170 102//170
f 110//171 105//171 107//171
f 101//172 105//172 110//172
f 107//173 105//173 104//173
f 107//174 104//174 108//174
f 109//175 108//175 104//175
f 102//176 109//176 104//176
g R3_1
f 111//177 112//177 113//177
f 111//178 113//178 114//178
f 112//179 115//179 116//179
f 112//180 116//180 113//180
f 115//181 112//181 111//181
f 117//182 115//182 111//182
f 118//183 115//183 117//183
f 117//184 111//184 114//184
f 117//185 114//185 119//185
f 116//186 120//186 119//186
f 114//187 116//187 119//187
f 113//188 116//188 114//188
f 115//189 118//189 120//189
f 115//190 120//190 116//190
f 118//191 117//191 119//191
f 118//192 119//192 120//192
g R2_2
f 121//193 122//193 123//193
f 121//194 123//194 124//194
f 122//195 125//195 126//195
f 122//196 126//196 123//196
f 127//197 122//197 121//197
f 127//198 125//198 122//198
f 127//199 121//199 124//199
f 127//200 124//200 128//200
f 123//201 128//201 124//201
f 126//202 128//202 123//202
f 125//203 127//203 128//203
f 125//204 128//204 126//204
g R6_1
f 129//205 130//205 131//205
f 129//206 131//206 132//206
f 130//207 133//207 134//207
f 130//208 134//208 131//208
f 129//209 135//209 133//209
f 129//210 133//210 130//210
f 135//211 129//211 132//211
f 135//212 132//212 136//212
f 132//213 131//213 134//213
f 132//214 134//214 136//214
f 133//215 135//215 136//215
f 133//216 136//216 134//216
f 137//217 138//217 139//217
f 137//218 139//218 140//218
f 138//219 141//219 142//219
f 138//220 142//220 139//220
f 137//221 143//221 141//221
f 137//222 141//222 138//222
f 143//223 137//223 140//223
f 143//224 140//224 144//224
f 140//225 139//225 142//225
f 140//226 142//226 144//226
f 141//227 143//227 144//227
f 141//228 144//228 142//228
g R1_1
f 145//229 146//229 147//229
f 148//230 146//230 145//230
f 146//231 149//231 150//231
f 146//232 150//232 147//232
f 146//233 151//233 149//233
f 148//234 151//234 146//234
f 151//235 148//235 145//235
f 151//236 145//236 152//236
f 152//237 145//237 147//237
f 152//238 147//238 150//238
f 149//239 151//239 152//239
f 149//240 152//240 150//240
