# Created by FreeCAD <http://www.freecadweb.org>
v 38.000000 0.000000 25.000000 204 204 204
v 38.000000 0.000000 0.000000 204 204 204
v 37.422695 6.598631 25.000000 204 204 204
v 37.422695 6.598631 0.000000 204 204 204
v 35.708321 12.996765 0.000000 204 204 204
v 35.708321 12.996765 25.000000 204 204 204
v 32.908966 19.000000 0.000000 204 204 204
v 32.908966 19.000000 25.000000 204 204 204
v 29.109690 24.425930 25.000000 204 204 204
v 29.109690 24.425930 0.000000 204 204 204
v 24.425930 29.109690 0.000000 204 204 204
v 24.425930 29.109690 25.000000 204 204 204
v 19.000000 32.908966 0.000000 204 204 204
v 19.000000 32.908966 25.000000 204 204 204
v 12.996765 35.708321 0.000000 204 204 204
v 12.996765 35.708321 25.000000 204 204 204
v 6.598631 37.422695 0.000000 204 204 204
v 6.598631 37.422695 25.000000 204 204 204
v 0.000000 38.000000 0.000000 204 204 204
v 0.000000 38.000000 25.000000 204 204 204
v -6.598631 37.422695 0.000000 204 204 204
v -6.598631 37.422695 25.000000 204 204 204
v -12.996765 35.708321 0.000000 204 204 204
v -12.996765 35.708321 25.000000 204 204 204
v -19.000000 32.908966 0.000000 204 204 204
v -19.000000 32.908966 25.000000 204 204 204
v -24.425930 29.109690 0.000000 204 204 204
v -24.425930 29.109690 25.000000 204 204 204
v -29.109690 24.425930 0.000000 204 204 204
v -29.109690 24.425930 25.000000 204 204 204
v -32.908966 19.000000 25.000000 204 204 204
v -32.908966 19.000000 0.000000 204 204 204
v -35.708321 12.996765 0.000000 204 204 204
v -35.708321 12.996765 25.000000 204 204 204
v -37.422695 6.598631 0.000000 204 204 204
v -37.422695 6.598631 25.000000 204 204 204
v -38.000000 0.000000 0.000000 204 204 204
v -38.000000 0.000000 25.000000 204 204 204
v -37.422695 -6.598631 25.000000 204 204 204
v -37.422695 -6.598631 0.000000 204 204 204
v -35.708321 -12.996765 0.000000 204 204 204
v -35.708321 -12.996765 25.000000 204 204 204
v -32.908966 -19.000000 25.000000 204 204 204
v -32.908966 -19.000000 0.000000 204 204 204
v -29.109690 -24.425930 0.000000 204 204 204
v -29.109690 -24.425930 25.000000 204 204 204
v -24.425930 -29.109690 0.000000 204 204 204
v -24.425930 -29.109690 25.000000 204 204 204
v -19.000000 -32.908966 25.000000 204 204 204
v -19.000000 -32.908966 0.000000 204 204 204
v -12.996765 -35.708321 0.000000 204 204 204
v -12.996765 -35.708321 25.000000 204 204 204
v -6.598631 -37.422695 0.000000 204 204 204
v -6.598631 -37.422695 25.000000 204 204 204
v -0.000000 -38.000000 0.000000 204 204 204
v -0.000000 -38.000000 25.000000 204 204 204
v 6.598631 -37.422695 0.000000 204 204 204
v 6.598631 -37.422695 25.000000 204 204 204
v 12.996765 -35.708321 0.000000 204 204 204
v 12.996765 -35.708321 25.000000 204 204 204
v 19.000000 -32.908966 0.000000 204 204 204
v 19.000000 -32.908966 25.000000 204 204 204
v 24.425930 -29.109690 0.000000 204 204 204
v 24.425930 -29.109690 25.000000 204 204 204
v 29.109690 -24.425930 0.000000 204 204 204
v 29.109690 -24.425930 25.000000 204 204 204
v 32.908966 -19.000000 0.000000 204 204 204
v 32.908966 -19.000000 25.000000 204 204 204
v 35.708321 -12.996765 25.000000 204 204 204
v 35.708321 -12.996765 0.000000 204 204 204
v 37.422695 -6.598631 0.000000 204 204 204
v 37.422695 -6.598631 25.000000 204 204 204
vn 0.996195 0.087156 0.000000
vn 0.996195 0.087156 0.000000
vn 0.965926 0.258819 0.000000
vn 0.965926 0.258819 -0.000000
vn 0.906308 0.422618 0.000000
vn 0.819152 0.573576 0.000000
vn 0.906308 0.422618 -0.000000
vn 0.819152 0.573576 0.000000
vn 0.707107 0.707107 0.000000
vn 0.707107 0.707107 -0.000000
vn 0.573576 0.819152 0.000000
vn 0.573576 0.819152 -0.000000
vn 0.422618 0.906308 -0.000000
vn 0.422618 0.906308 0.000000
vn 0.258819 0.965926 0.000000
vn 0.258819 0.965926 -0.000000
vn 0.087156 0.996195 -0.000000
vn 0.087156 0.996195 0.000000
vn -0.087156 0.996195 0.000000
vn -0.087156 0.996195 0.000000
vn -0.258819 0.965926 0.000000
vn -0.258819 0.965926 0.000000
vn -0.422618 0.906308 0.000000
vn -0.422618 0.906308 0.000000
vn -0.573576 0.819152 0.000000
vn -0.573576 0.819152 0.000000
vn -0.707107 0.707107 0.000000
vn -0.819152 0.573576 0.000000
vn -0.707107 0.707107 0.000000
vn -0.819152 0.573576 0.000000
vn -0.906308 0.422618 0.000000
vn -0.906308 0.422618 0.000000
vn -0.965926 0.258819 0.000000
vn -0.965926 0.258819 0.000000
vn -0.996195 0.087156 0.000000
vn -0.996195 -0.087156 -0.000000
vn -0.996195 0.087156 0.000000
vn -0.996195 -0.087156 0.000000
vn -0.965926 -0.258819 0.000000
vn -0.906308 -0.422618 -0.000000
vn -0.965926 -0.258819 0.000000
vn -0.906308 -0.422618 0.000000
vn -0.819152 -0.573576 0.000000
vn -0.819152 -0.573576 0.000000
vn -0.707107 -0.707107 0.000000
vn -0.573576 -0.819152 -0.000000
vn -0.707107 -0.707107 0.000000
vn -0.573576 -0.819152 0.000000
vn -0.422618 -0.906308 0.000000
vn -0.422618 -0.906308 0.000000
vn -0.258819 -0.965926 0.000000
vn -0.258819 -0.965926 0.000000
vn -0.087156 -0.996195 0.000000
vn -0.087156 -0.996195 0.000000
vn 0.087156 -0.996195 0.000000
vn 0.087156 -0.996195 0.000000
vn 0.258819 -0.965926 0.000000
vn 0.258819 -0.965926 0.000000
vn 0.422618 -0.906308 0.000000
vn 0.422618 -0.906308 0.000000
vn 0.573576 -0.819152 0.000000
vn 0.573576 -0.819152 0.000000
vn 0.707107 -0.707107 0.000000
vn 0.707107 -0.707107 0.000000
vn 0.819152 -0.573576 0.000000
vn 0.819152 -0.573576 0.000000
vn 0.906308 -0.422618 0.000000
vn 0.906308 -0.422618 0.000000
vn 0.965926 -0.258819 0.000000
vn 0.965926 -0.258819 0.000000
vn 0.996195 -0.087156 0.000000
vn 0.996195 -0.087156 0.000000
vn 0.000000 0.000000 -1.000000
vn 0.000000 0.000000 -1.000000
vn 0.000000 0.000000 -1.000000
vn 0.000000 0.000000 -1.000000
vn 0.000000 0.000000 -1.000000
vn 0.000000 0.000000 -1.000000
vn 0.000000 0.000000 -1.000000
vn 0.000000 0.000000 -1.000000
vn 0.000000 0.000000 -1.000000
vn 0.000000 0.000000 -1.000000
vn 0.000000 0.000000 -1.000000
vn 0.000000 -0.000000 -1.000000
vn 0.000000 -0.000000 -1.000000
vn 0.000000 -0.000000 -1.000000
vn 0.000000 0.000000 -1.000000
vn 0.000000 0.000000 -1.000000
vn 0.000000 0.000000 -1.000000
vn 0.000000 0.000000 -1.000000
vn 0.000000 0.000000 -1.000000
vn 0.000000 -0.000000 -1.000000
vn 0.000000 -0.000000 -1.000000
vn 0.000000 0.000000 -1.000000
vn 0.000000 0.000000 -1.000000
vn 0.000000 0.000000 -1.000000
vn 0.000000 -0.000000 -1.000000
vn 0.000000 -0.000000 -1.000000
vn 0.000000 0.000000 -1.000000
vn 0.000000 0.000000 -1.000000
vn -0.000000 -0.000000 -1.000000
vn 0.000000 0.000000 -1.000000
vn 0.000000 0.000000 -1.000000
vn 0.000000 0.000000 -1.000000
vn 0.000000 0.000000 -1.000000
vn 0.000000 0.000000 -1.000000
vn 0.000000 0.000000 1.000000
vn 0.000000 0.000000 1.000000
vn 0.000000 0.000000 1.000000
vn 0.000000 0.000000 1.000000
vn 0.000000 0.000000 1.000000
vn 0.000000 0.000000 1.000000
vn 0.000000 0.000000 1.000000
vn 0.000000 0.000000 1.000000
vn 0.000000 0.000000 1.000000
vn 0.000000 0.000000 1.000000
vn 0.000000 0.000000 1.000000
vn 0.000000 0.000000 1.000000
vn 0.000000 0.000000 1.000000
vn 0.000000 0.000000 1.000000
vn 0.000000 0.000000 1.000000
vn 0.000000 0.000000 1.000000
vn 0.000000 0.000000 1.000000
vn 0.000000 0.000000 1.000000
vn 0.000000 0.000000 1.000000
vn 0.000000 0.000000 1.000000
vn 0.000000 0.000000 1.000000
vn 0.000000 0.000000 1.000000
vn 0.000000 0.000000 1.000000
vn 0.000000 0.000000 1.000000
vn 0.000000 0.000000 1.000000
vn 0.000000 0.000000 1.000000
vn 0.000000 0.000000 1.000000
vn 0.000000 0.000000 1.000000
vn 0.000000 0.000000 1.000000
vn 0.000000 0.000000 1.000000
vn 0.000000 0.000000 1.000000
vn 0.000000 0.000000 1.000000
vn 0.000000 0.000000 1.000000
vn 0.000000 0.000000 1.000000
f 1//1 2//1 3//1
f 2//2 4//2 3//2
f 3//3 5//3 6//3
f 4//4 5//4 3//4
f 6//5 7//5 8//5
f 8//6 7//6 9//6
f 5//7 7//7 6//7
f 7//8 10//8 9//8
f 9//9 11//9 12//9
f 10//10 11//10 9//10
f 12//11 13//11 14//11
f 11//12 13//12 12//12
f 13//13 15//13 14//13
f 14//14 15//14 16//14
f 16//15 17//15 18//15
f 15//16 17//16 16//16
f 17//17 19//17 18//17
f 18//18 19//18 20//18
f 20//19 21//19 22//19
f 19//20 21//20 20//20
f 22//21 23//21 24//21
f 21//22 23//22 22//22
f 24//23 25//23 26//23
f 23//24 25//24 24//24
f 26//25 27//25 28//25
f 25//26 27//26 26//26
f 28//27 29//27 30//27
f 30//28 29//28 31//28
f 27//29 29//29 28//29
f 29//30 32//30 31//30
f 31//31 33//31 34//31
f 32//32 33//32 31//32
f 34//33 35//33 36//33
f 33//34 35//34 34//34
f 36//35 37//35 38//35
f 38//36 37//36 39//36
f 35//37 37//37 36//37
f 37//38 40//38 39//38
f 39//39 41//39 42//39
f 42//40 41//40 43//40
f 40//41 41//41 39//41
f 41//42 44//42 43//42
f 43//43 45//43 46//43
f 44//44 45//44 43//44
f 46//45 47//45 48//45
f 48//46 47//46 49//46
f 45//47 47//47 46//47
f 47//48 50//48 49//48
f 49//49 51//49 52//49
f 50//50 51//50 49//50
f 52//51 53//51 54//51
f 51//52 53//52 52//52
f 54//53 55//53 56//53
f 53//54 55//54 54//54
f 56//55 57//55 58//55
f 55//56 57//56 56//56
f 58//57 59//57 60//57
f 57//58 59//58 58//58
f 60//59 61//59 62//59
f 59//60 61//60 60//60
f 61//61 63//61 62//61
f 62//62 63//62 64//62
f 63//63 65//63 64//63
f 64//64 65//64 66//64
f 65//65 67//65 66//65
f 66//66 67//66 68//66
f 68//67 67//67 69//67
f 67//68 70//68 69//68
f 70//69 71//69 69//69
f 69//70 71//70 72//70
f 71//71 2//71 72//71
f 72//72 2//72 1//72
f 44//73 41//73 45//73
f 45//74 53//74 47//74
f 47//75 53//75 50//75
f 50//76 53//76 51//76
f 53//77 57//77 55//77
f 37//78 35//78 40//78
f 40//79 35//79 41//79
f 41//80 35//80 45//80
f 59//81 63//81 61//81
f 57//82 65//82 59//82
f 59//83 65//83 63//83
f 29//84 27//84 32//84
f 32//85 27//85 33//85
f 33//86 27//86 35//86
f 65//87 70//87 67//87
f 35//88 70//88 45//88
f 53//89 70//89 57//89
f 45//90 70//90 53//90
f 57//91 70//91 65//91
f 25//92 23//92 27//92
f 27//93 23//93 35//93
f 35//94 23//94 70//94
f 70//95 2//95 71//95
f 23//96 2//96 70//96
f 19//97 17//97 21//97
f 21//98 17//98 23//98
f 23//99 17//99 2//99
f 2//100 5//100 4//100
f 15//101 13//101 17//101
f 17//102 13//102 2//102
f 5//103 11//103 7//103
f 7//104 11//104 10//104
f 13//105 11//105 2//105
f 2//106 11//106 5//106
f 42//107 43//107 46//107
f 54//108 46//108 48//108
f 54//109 48//109 49//109
f 54//110 49//110 52//110
f 58//111 54//111 56//111
f 36//112 38//112 39//112
f 36//113 39//113 42//113
f 36//114 42//114 46//114
f 64//115 60//115 62//115
f 66//116 58//116 60//116
f 66//117 60//117 64//117
f 28//118 30//118 31//118
f 28//119 31//119 34//119
f 28//120 34//120 36//120
f 69//121 66//121 68//121
f 69//122 36//122 46//122
f 69//123 54//123 58//123
f 69//124 46//124 54//124
f 69//125 58//125 66//125
f 24//126 26//126 28//126
f 24//127 28//127 36//127
f 24//128 36//128 69//128
f 1//129 69//129 72//129
f 1//130 24//130 69//130
f 18//131 20//131 22//131
f 18//132 22//132 24//132
f 18//133 24//133 1//133
f 6//134 1//134 3//134
f 14//135 16//135 18//135
f 14//136 18//136 1//136
f 12//137 6//137 8//137
f 12//138 8//138 9//138
f 12//139 14//139 1//139
f 12//140 1//140 6//140
